<svg width="632" height="860" viewBox="0 0 632 860" fill="none" xmlns="http://www.w3.org/2000/svg">
<mask id="mask0_535_236" style="mask-type:alpha" maskUnits="userSpaceOnUse" x="0" y="0" width="632" height="632">
<circle cx="316" cy="316" r="316" fill="#D49C9C"/>
</mask>
<g mask="url(#mask0_535_236)">
<path d="M558 409C571.179 409 584.121 410.016 596.752 411.974C477.881 430.795 387 533.733 387 657.897C387 786.691 484.783 892.645 610.16 905.572C593.334 909.129 575.885 911 558 911C419.377 911 307 798.623 307 660C307 521.377 419.377 409 558 409Z" fill="#17CB1D"/>
<path d="M74.1602 409C60.9809 409 48.039 410.016 35.4082 411.974C154.279 430.795 245.16 533.733 245.16 657.897C245.16 786.691 147.377 892.645 22 905.572C38.8265 909.129 56.2748 911 74.1602 911C212.784 911 325.16 798.623 325.16 660C325.16 521.377 212.784 409 74.1602 409Z" fill="#17CB1D"/>
<mask id="mask1_535_236" style="mask-type:alpha" maskUnits="userSpaceOnUse" x="0" y="0" width="632" height="632">
<circle cx="316" cy="316" r="316" fill="#D49C9C"/>
</mask>
<g mask="url(#mask1_535_236)">
<path d="M508.5 550C641.324 550 749 657.676 749 790.5C749 799.113 748.546 807.621 747.663 816C734.928 695.164 632.711 601 508.5 601C429.767 601 359.872 638.834 316 697.312C272.128 638.834 202.233 601 123.5 601C-0.711225 601 -102.929 695.163 -115.664 816C-116.547 807.621 -117 799.113 -117 790.5C-117 657.676 -9.32448 550 123.5 550C202.233 550 272.128 587.834 316 646.312C359.872 587.834 429.767 550 508.5 550Z" fill="#17CB1D"/>
<path d="M508.5 499C641.324 499 749 606.676 749 739.5C749 748.113 748.546 756.621 747.663 765C734.928 644.164 632.711 550 508.5 550C429.767 550 359.872 587.834 316 646.312C272.128 587.834 202.233 550 123.5 550C-0.711223 550 -102.929 644.163 -115.664 765C-116.547 756.621 -117 748.113 -117 739.5C-117 606.676 -9.32448 499 123.5 499C202.233 499 272.128 536.834 316 595.312C359.872 536.834 429.767 499 508.5 499Z" fill="#17CB1D"/>
</g>
<mask id="mask2_535_236" style="mask-type:alpha" maskUnits="userSpaceOnUse" x="316" y="274" width="115" height="65">
<rect x="316.382" y="274" width="114.195" height="64.6222" fill="#FFC42F"/>
</mask>
<g mask="url(#mask2_535_236)">
<mask id="mask3_535_236" style="mask-type:alpha" maskUnits="userSpaceOnUse" x="315" y="274" width="158" height="158">
<circle cx="393.84" cy="352.786" r="78.786" fill="#FFC42F"/>
</mask>
<g mask="url(#mask3_535_236)">
<circle cx="345.373" cy="249.435" r="89.1875" fill="#FFC42F"/>
</g>
</g>
<mask id="mask4_535_236" style="mask-type:alpha" maskUnits="userSpaceOnUse" x="316" y="338" width="115" height="66">
<rect x="316.382" y="338.623" width="114.195" height="64.6222" fill="#FFC42F"/>
</mask>
<g mask="url(#mask4_535_236)">
<mask id="mask5_535_236" style="mask-type:alpha" maskUnits="userSpaceOnUse" x="315" y="338" width="158" height="159">
<circle cx="393.84" cy="417.409" r="78.786" fill="#FFC42F"/>
</mask>
<g mask="url(#mask5_535_236)">
<circle cx="345.373" cy="314.057" r="89.1875" fill="#FFC42F"/>
</g>
</g>
<mask id="mask6_535_236" style="mask-type:alpha" maskUnits="userSpaceOnUse" x="316" y="403" width="115" height="65">
<rect x="316.382" y="403.245" width="114.195" height="64.6222" fill="#FFC42F"/>
</mask>
<g mask="url(#mask6_535_236)">
<mask id="mask7_535_236" style="mask-type:alpha" maskUnits="userSpaceOnUse" x="315" y="403" width="158" height="158">
<circle cx="393.84" cy="482.031" r="78.786" fill="#FFC42F"/>
</mask>
<g mask="url(#mask7_535_236)">
<circle cx="345.373" cy="378.68" r="89.1875" fill="#FFC42F"/>
</g>
</g>
<mask id="mask8_535_236" style="mask-type:alpha" maskUnits="userSpaceOnUse" x="202" y="274" width="115" height="65">
<rect width="114.195" height="64.6222" transform="matrix(-1 0 0 1 316.196 274)" fill="#FFC42F"/>
</mask>
<g mask="url(#mask8_535_236)">
<mask id="mask9_535_236" style="mask-type:alpha" maskUnits="userSpaceOnUse" x="159" y="274" width="159" height="158">
<circle cx="78.786" cy="78.786" r="78.786" transform="matrix(-1 0 0 1 317.523 274)" fill="#FFC42F"/>
</mask>
<g mask="url(#mask9_535_236)">
<circle cx="89.1875" cy="89.1875" r="89.1875" transform="matrix(-1 0 0 1 376.393 160.247)" fill="#FFC42F"/>
</g>
</g>
<mask id="mask10_535_236" style="mask-type:alpha" maskUnits="userSpaceOnUse" x="316" y="209" width="115" height="65">
<rect x="316.381" y="209" width="114.195" height="64.6222" fill="#FFC42F"/>
</mask>
<g mask="url(#mask10_535_236)">
<mask id="mask11_535_236" style="mask-type:alpha" maskUnits="userSpaceOnUse" x="315" y="209" width="158" height="158">
<circle cx="393.839" cy="287.786" r="78.786" fill="#FFC42F"/>
</mask>
<g mask="url(#mask11_535_236)">
<circle cx="345.372" cy="184.435" r="89.1875" fill="#FFC42F"/>
</g>
</g>
<mask id="mask12_535_236" style="mask-type:alpha" maskUnits="userSpaceOnUse" x="202" y="209" width="115" height="65">
<rect width="114.195" height="64.6222" transform="matrix(-1 0 0 1 316.195 209)" fill="#FFC42F"/>
</mask>
<g mask="url(#mask12_535_236)">
<mask id="mask13_535_236" style="mask-type:alpha" maskUnits="userSpaceOnUse" x="159" y="209" width="159" height="158">
<circle cx="78.786" cy="78.786" r="78.786" transform="matrix(-1 0 0 1 317.523 209)" fill="#FFC42F"/>
</mask>
<g mask="url(#mask13_535_236)">
<circle cx="89.1875" cy="89.1875" r="89.1875" transform="matrix(-1 0 0 1 376.392 95.2471)" fill="#FFC42F"/>
</g>
</g>
<mask id="mask14_535_236" style="mask-type:alpha" maskUnits="userSpaceOnUse" x="202" y="338" width="115" height="66">
<rect width="114.195" height="64.6222" transform="matrix(-1 0 0 1 316.196 338.623)" fill="#FFC42F"/>
</mask>
<g mask="url(#mask14_535_236)">
<mask id="mask15_535_236" style="mask-type:alpha" maskUnits="userSpaceOnUse" x="159" y="338" width="159" height="159">
<circle cx="78.786" cy="78.786" r="78.786" transform="matrix(-1 0 0 1 317.523 338.623)" fill="#FFC42F"/>
</mask>
<g mask="url(#mask15_535_236)">
<circle cx="89.1875" cy="89.1875" r="89.1875" transform="matrix(-1 0 0 1 376.393 224.869)" fill="#FFC42F"/>
</g>
</g>
<mask id="mask16_535_236" style="mask-type:alpha" maskUnits="userSpaceOnUse" x="202" y="403" width="115" height="65">
<rect width="114.195" height="64.6222" transform="matrix(-1 0 0 1 316.196 403.245)" fill="#FFC42F"/>
</mask>
<g mask="url(#mask16_535_236)">
<mask id="mask17_535_236" style="mask-type:alpha" maskUnits="userSpaceOnUse" x="159" y="403" width="159" height="158">
<circle cx="78.786" cy="78.786" r="78.786" transform="matrix(-1 0 0 1 317.523 403.245)" fill="#FFC42F"/>
</mask>
<g mask="url(#mask17_535_236)">
<circle cx="89.1875" cy="89.1875" r="89.1875" transform="matrix(-1 0 0 1 376.393 289.492)" fill="#FFC42F"/>
</g>
</g>
<mask id="mask18_535_236" style="mask-type:alpha" maskUnits="userSpaceOnUse" x="258" y="97" width="117" height="146">
<path d="M258.064 184.597L316.19 97.9993L374.316 184.597L316.19 242.723L258.064 184.597Z" fill="#FFC42F"/>
</mask>
<g mask="url(#mask18_535_236)">
<ellipse cx="315.768" cy="151.07" rx="46.7803" ry="64.0772" fill="#FFC42F"/>
</g>
<path d="M108.5 -65C200.016 -65 277.693 -5.7554 305.273 76.4727C292.601 77.5952 280.495 80.6883 269.263 85.4424C234.369 58.8151 190.782 43 143.5 43C28.9009 43 -64 135.901 -64 250.5C-64 253.033 -63.9533 255.555 -63.8633 258.066C-86.0524 225.037 -99 185.281 -99 142.5C-99 27.9009 -6.09909 -65 108.5 -65ZM523.364 -65C637.963 -65 730.864 27.9009 730.864 142.5C730.864 185.281 717.917 225.037 695.728 258.066C695.818 255.555 695.864 253.033 695.864 250.5C695.864 135.901 602.963 43 488.364 43C441.104 43 397.534 58.7999 362.648 85.4053C351.402 80.6558 339.281 77.5717 326.594 76.4619C354.177 -5.76067 431.853 -65 523.364 -65Z" fill="#FFC42F"/>
<path d="M108.5 73C153.884 73 195.864 87.572 230.02 112.29C210.755 132.074 198.263 158.482 196.279 187.773C179.427 183.354 161.738 181 143.5 181C28.9009 181 -64 273.901 -64 388.5C-64 391.033 -63.9533 393.555 -63.8633 396.066C-86.0524 363.037 -99 323.281 -99 280.5C-99 165.901 -6.09909 73 108.5 73ZM523.364 73C637.963 73 730.864 165.901 730.864 280.5C730.864 323.281 717.917 363.037 695.728 396.066C695.818 393.555 695.864 391.033 695.864 388.5C695.864 273.901 602.963 181 488.364 181C470.174 181 452.53 183.342 435.718 187.738C433.725 158.432 421.212 132.014 401.924 112.232C436.065 87.5492 478.015 73 523.364 73Z" fill="#FFC42F"/>
<path d="M572.475 305.208C576.496 302.146 581.909 305.94 579.721 310.496C559.975 351.613 516.867 386.284 460.189 408.309C456.954 409.566 453.502 407.154 453.502 403.682V366.335C453.502 364.102 454.986 362.142 457.128 361.51C501.904 348.319 541.254 328.981 572.475 305.208ZM52.4644 308.321C50.3673 303.739 55.8252 300.043 59.7959 303.145C90.8754 327.429 130.338 347.231 175.393 360.788C177.521 361.428 178.991 363.382 178.991 365.604V403.405C178.991 406.881 175.531 409.293 172.294 408.027C114.978 385.6 71.6378 350.214 52.4644 308.321Z" fill="#BFBFBF"/>
</g>
<path d="M41.184 749V679H55.284L77.184 723.8L99.084 679H113.084V749H103.184V691.8L77.084 744L50.984 691.8V749H41.184ZM125.317 749L154.217 679H166.617L195.217 749H183.817L175.717 728.5H144.417L136.217 749H125.317ZM147.817 719.8H172.317L160.117 689L147.817 719.8ZM237.421 750.1C232.287 750.1 227.487 749.167 223.021 747.3C218.621 745.433 214.754 742.867 211.421 739.6C208.087 736.267 205.487 732.433 203.621 728.1C201.754 723.7 200.821 719 200.821 714C200.821 709 201.721 704.333 203.521 700C205.387 695.6 207.987 691.767 211.321 688.5C214.654 685.167 218.521 682.567 222.921 680.7C227.321 678.833 232.087 677.9 237.221 677.9C242.754 677.9 247.987 678.967 252.921 681.1C257.854 683.233 262.021 686.2 265.421 690L258.221 697C255.687 694 252.554 691.7 248.821 690.1C245.154 688.433 241.287 687.6 237.221 687.6C233.554 687.6 230.154 688.267 227.021 689.6C223.954 690.933 221.254 692.8 218.921 695.2C216.587 697.533 214.754 700.3 213.421 703.5C212.154 706.7 211.521 710.2 211.521 714C211.521 717.733 212.154 721.233 213.421 724.5C214.754 727.7 216.587 730.5 218.921 732.9C221.321 735.3 224.087 737.167 227.221 738.5C230.354 739.833 233.754 740.5 237.421 740.5C241.554 740.5 245.287 739.633 248.621 737.9C252.021 736.167 254.787 733.8 256.921 730.8C259.054 727.733 260.354 724.3 260.821 720.5H237.521V711.3H271.821V714.9C271.821 719.9 270.954 724.533 269.221 728.8C267.487 733.067 265.054 736.8 261.921 740C258.854 743.2 255.221 745.7 251.021 747.5C246.821 749.233 242.287 750.1 237.421 750.1ZM287.825 749V679H298.325V749H287.825ZM317.629 749V679H349.329C353.996 679 358.063 679.867 361.529 681.6C365.063 683.333 367.796 685.767 369.729 688.9C371.729 691.967 372.729 695.567 372.729 699.7C372.729 704.3 371.429 708.267 368.829 711.6C366.229 714.933 362.729 717.333 358.329 718.8L373.929 749H362.329L347.829 720.3H328.129V749H317.629ZM328.129 711.5H348.529C352.663 711.5 355.963 710.467 358.429 708.4C360.963 706.267 362.229 703.4 362.229 699.8C362.229 696.333 360.963 693.533 358.429 691.4C355.963 689.267 352.663 688.2 348.529 688.2H328.129V711.5ZM388.547 749V679H440.147V688.2H399.047V709.2H426.047V718.1H399.047V739.8H440.547V749H388.547ZM477.54 750.1C471.074 750.1 465.54 748.467 460.94 745.2C456.34 741.867 453.007 737.167 450.94 731.1L460.54 727.3C462.207 731.767 464.44 735.1 467.24 737.3C470.107 739.433 473.54 740.5 477.54 740.5C482.74 740.5 486.874 738.833 489.94 735.5C493.074 732.167 494.64 727.7 494.64 722.1V679H505.14V722.3C505.14 727.9 504.007 732.8 501.74 737C499.474 741.133 496.274 744.367 492.14 746.7C488.007 748.967 483.14 750.1 477.54 750.1ZM556.459 750.1C551.392 750.1 546.659 749.2 542.259 747.4C537.859 745.533 533.959 742.967 530.559 739.7C527.226 736.367 524.626 732.533 522.759 728.2C520.959 723.8 520.059 719.067 520.059 714C520.059 708.933 520.959 704.233 522.759 699.9C524.626 695.5 527.226 691.667 530.559 688.4C533.959 685.067 537.859 682.5 542.259 680.7C546.659 678.833 551.392 677.9 556.459 677.9C561.526 677.9 566.259 678.833 570.659 680.7C575.126 682.5 579.026 685.067 582.359 688.4C585.692 691.667 588.292 695.5 590.159 699.9C592.026 704.233 592.959 708.933 592.959 714C592.959 719.067 592.026 723.8 590.159 728.2C588.292 732.533 585.692 736.367 582.359 739.7C579.026 742.967 575.126 745.533 570.659 747.4C566.259 749.2 561.526 750.1 556.459 750.1ZM556.559 740.4C560.159 740.4 563.492 739.733 566.559 738.4C569.692 737.067 572.426 735.233 574.759 732.9C577.092 730.5 578.926 727.7 580.259 724.5C581.592 721.233 582.259 717.733 582.259 714C582.259 710.2 581.592 706.7 580.259 703.5C578.926 700.3 577.092 697.533 574.759 695.2C572.426 692.8 569.692 690.933 566.559 689.6C563.492 688.267 560.159 687.6 556.559 687.6C552.892 687.6 549.492 688.267 546.359 689.6C543.226 690.933 540.492 692.8 538.159 695.2C535.826 697.533 533.992 700.3 532.659 703.5C531.392 706.7 530.759 710.167 530.759 713.9C530.759 717.7 531.392 721.233 532.659 724.5C533.992 727.7 535.826 730.5 538.159 732.9C540.492 735.233 543.226 737.067 546.359 738.4C549.492 739.733 552.892 740.4 556.559 740.4ZM75.8313 848C70.2313 848 64.8313 846.9 59.6313 844.7C54.4313 842.5 49.8313 839.4 45.8313 835.4L52.2313 828C56.0313 831.733 59.8979 834.5 63.8313 836.3C67.8313 838.1 71.9979 839 76.3313 839C79.7313 839 82.6979 838.533 85.2313 837.6C87.8313 836.6 89.8313 835.2 91.2313 833.4C92.6313 831.6 93.3313 829.567 93.3313 827.3C93.3313 824.167 92.2313 821.767 90.0313 820.1C87.8313 818.433 84.1979 817.167 79.1313 816.3L67.4313 814.4C61.0313 813.267 56.2313 811.2 53.0313 808.2C49.8979 805.2 48.3312 801.2 48.3312 796.2C48.3312 792.2 49.3979 788.7 51.5313 785.7C53.6646 782.633 56.6646 780.267 60.5313 778.6C64.4646 776.933 68.9979 776.1 74.1313 776.1C79.1979 776.1 84.1646 776.933 89.0313 778.6C93.9646 780.2 98.3979 782.533 102.331 785.6L96.5313 793.6C88.9979 787.867 81.3646 785 73.6313 785C70.5646 785 67.8979 785.433 65.6313 786.3C63.3646 787.167 61.5979 788.4 60.3313 790C59.0646 791.533 58.4313 793.333 58.4313 795.4C58.4313 798.267 59.3979 800.467 61.3313 802C63.2646 803.467 66.4646 804.533 70.9313 805.2L82.2313 807.1C89.6313 808.3 95.0646 810.467 98.5313 813.6C101.998 816.733 103.731 821.033 103.731 826.5C103.731 830.767 102.565 834.533 100.231 837.8C97.8979 841 94.6313 843.5 90.4313 845.3C86.2313 847.1 81.3646 848 75.8313 848ZM118.459 847V777H170.059V786.2H128.959V807.2H155.959V816.1H128.959V837.8H170.459V847H118.459ZM186.252 847V777H200.352L222.252 821.8L244.152 777H258.152V847H248.252V789.8L222.152 842L196.052 789.8V847H186.252ZM277.385 847V777H307.685C312.285 777 316.285 777.767 319.685 779.3C323.085 780.833 325.718 783 327.585 785.8C329.452 788.533 330.385 791.767 330.385 795.5C330.385 798.9 329.518 801.9 327.785 804.5C326.052 807.1 323.618 809.167 320.485 810.7C324.418 812.1 327.485 814.233 329.685 817.1C331.952 819.9 333.085 823.2 333.085 827C333.085 831.067 332.085 834.6 330.085 837.6C328.152 840.6 325.352 842.933 321.685 844.6C318.085 846.2 313.852 847 308.985 847H277.385ZM287.885 806.7H307.085C311.018 806.7 314.152 805.767 316.485 803.9C318.818 802.033 319.985 799.5 319.985 796.3C319.985 793.1 318.818 790.567 316.485 788.7C314.152 786.833 311.018 785.9 307.085 785.9H287.885V806.7ZM287.885 838.1H308.185C312.585 838.1 316.052 837.067 318.585 835C321.185 832.933 322.485 830.133 322.485 826.6C322.485 823.133 321.185 820.367 318.585 818.3C316.052 816.167 312.585 815.1 308.185 815.1H287.885V838.1ZM381.898 848.1C376.832 848.1 372.098 847.2 367.698 845.4C363.298 843.533 359.398 840.967 355.998 837.7C352.665 834.367 350.065 830.533 348.198 826.2C346.398 821.8 345.498 817.067 345.498 812C345.498 806.933 346.398 802.233 348.198 797.9C350.065 793.5 352.665 789.667 355.998 786.4C359.398 783.067 363.298 780.5 367.698 778.7C372.098 776.833 376.832 775.9 381.898 775.9C386.965 775.9 391.698 776.833 396.098 778.7C400.565 780.5 404.465 783.067 407.798 786.4C411.132 789.667 413.732 793.5 415.598 797.9C417.465 802.233 418.398 806.933 418.398 812C418.398 817.067 417.465 821.8 415.598 826.2C413.732 830.533 411.132 834.367 407.798 837.7C404.465 840.967 400.565 843.533 396.098 845.4C391.698 847.2 386.965 848.1 381.898 848.1ZM381.998 838.4C385.598 838.4 388.932 837.733 391.998 836.4C395.132 835.067 397.865 833.233 400.198 830.9C402.532 828.5 404.365 825.7 405.698 822.5C407.032 819.233 407.698 815.733 407.698 812C407.698 808.2 407.032 804.7 405.698 801.5C404.365 798.3 402.532 795.533 400.198 793.2C397.865 790.8 395.132 788.933 391.998 787.6C388.932 786.267 385.598 785.6 381.998 785.6C378.332 785.6 374.932 786.267 371.798 787.6C368.665 788.933 365.932 790.8 363.598 793.2C361.265 795.533 359.432 798.3 358.098 801.5C356.832 804.7 356.198 808.167 356.198 811.9C356.198 815.7 356.832 819.233 358.098 822.5C359.432 825.7 361.265 828.5 363.598 830.9C365.932 833.233 368.665 835.067 371.798 836.4C374.932 837.733 378.332 838.4 381.998 838.4ZM444.955 837.6H459.355C463.022 837.6 466.422 836.967 469.555 835.7C472.689 834.367 475.422 832.567 477.755 830.3C480.155 827.967 481.989 825.267 483.255 822.2C484.589 819.067 485.255 815.667 485.255 812C485.255 808.4 484.589 805.033 483.255 801.9C481.989 798.767 480.155 796.067 477.755 793.8C475.422 791.467 472.689 789.667 469.555 788.4C466.422 787.067 463.022 786.4 459.355 786.4H444.955V837.6ZM434.455 847V777H459.155C464.422 777 469.289 777.9 473.755 779.7C478.222 781.433 482.122 783.867 485.455 787C488.789 790.133 491.389 793.833 493.255 798.1C495.122 802.367 496.055 807 496.055 812C496.055 817.067 495.122 821.733 493.255 826C491.455 830.2 488.889 833.867 485.555 837C482.222 840.133 478.289 842.6 473.755 844.4C469.289 846.133 464.422 847 459.155 847H434.455ZM545.512 848.1C540.445 848.1 535.712 847.2 531.312 845.4C526.912 843.533 523.012 840.967 519.612 837.7C516.278 834.367 513.678 830.533 511.812 826.2C510.012 821.8 509.112 817.067 509.112 812C509.112 806.933 510.012 802.233 511.812 797.9C513.678 793.5 516.278 789.667 519.612 786.4C523.012 783.067 526.912 780.5 531.312 778.7C535.712 776.833 540.445 775.9 545.512 775.9C550.578 775.9 555.312 776.833 559.712 778.7C564.178 780.5 568.078 783.067 571.412 786.4C574.745 789.667 577.345 793.5 579.212 797.9C581.078 802.233 582.012 806.933 582.012 812C582.012 817.067 581.078 821.8 579.212 826.2C577.345 830.533 574.745 834.367 571.412 837.7C568.078 840.967 564.178 843.533 559.712 845.4C555.312 847.2 550.578 848.1 545.512 848.1ZM545.612 838.4C549.212 838.4 552.545 837.733 555.612 836.4C558.745 835.067 561.478 833.233 563.812 830.9C566.145 828.5 567.978 825.7 569.312 822.5C570.645 819.233 571.312 815.733 571.312 812C571.312 808.2 570.645 804.7 569.312 801.5C567.978 798.3 566.145 795.533 563.812 793.2C561.478 790.8 558.745 788.933 555.612 787.6C552.545 786.267 549.212 785.6 545.612 785.6C541.945 785.6 538.545 786.267 535.412 787.6C532.278 788.933 529.545 790.8 527.212 793.2C524.878 795.533 523.045 798.3 521.712 801.5C520.445 804.7 519.812 808.167 519.812 811.9C519.812 815.7 520.445 819.233 521.712 822.5C523.045 825.7 524.878 828.5 527.212 830.9C529.545 833.233 532.278 835.067 535.412 836.4C538.545 837.733 541.945 838.4 545.612 838.4Z" fill="black"/>
</svg>
