<svg width="1337" height="440" viewBox="0 0 1337 440" fill="none" xmlns="http://www.w3.org/2000/svg">
<mask id="mask0_535_237" style="mask-type:alpha" maskUnits="userSpaceOnUse" x="0" y="0" width="437" height="440">
<ellipse cx="218.432" cy="220" rx="218.432" ry="220" fill="#D49C9C"/>
</mask>
<g mask="url(#mask0_535_237)">
<path d="M385.713 284.748C394.826 284.748 403.775 285.458 412.509 286.821C330.336 299.921 267.511 371.587 267.511 458.033C267.511 547.695 335.096 621.456 421.756 630.462C410.128 632.936 398.072 634.242 385.713 634.242C289.891 634.242 212.211 556.005 212.211 459.495C212.211 362.985 289.891 284.748 385.713 284.748Z" fill="#17CB1D"/>
<path d="M51.2617 284.748C42.1485 284.748 33.1996 285.458 24.4658 286.821C106.639 299.921 169.464 371.586 169.464 458.033C169.464 547.695 101.879 621.456 15.2188 630.462C26.8464 632.936 38.9027 634.242 51.2617 634.242C147.084 634.242 224.764 556.005 224.764 459.495C224.764 362.985 147.084 284.748 51.2617 284.748Z" fill="#17CB1D"/>
<mask id="mask1_535_237" style="mask-type:alpha" maskUnits="userSpaceOnUse" x="0" y="0" width="437" height="440">
<ellipse cx="218.432" cy="220" rx="218.432" ry="220" fill="#D49C9C"/>
</mask>
<g mask="url(#mask1_535_237)">
<path d="M351.495 382.912C443.309 382.912 517.738 457.876 517.738 550.349C517.738 556.345 517.422 562.267 516.812 568.101C508.009 483.974 437.355 418.417 351.495 418.417C297.072 418.417 248.758 444.757 218.432 485.47C188.106 444.757 139.791 418.417 85.3672 418.417C-0.492503 418.417 -71.1473 483.974 -79.9502 568.101C-80.5605 562.267 -80.876 556.345 -80.876 550.349C-80.8759 457.876 -6.44635 382.912 85.3672 382.912C139.791 382.912 188.106 409.252 218.432 449.965C248.758 409.252 297.072 382.912 351.495 382.912Z" fill="#17CB1D"/>
<path d="M351.495 347.404C443.309 347.404 517.738 422.368 517.738 514.841C517.738 520.837 517.422 526.759 516.812 532.593C508.009 448.466 437.355 382.909 351.495 382.909C297.072 382.909 248.758 409.249 218.432 449.962C188.106 409.249 139.791 382.909 85.3672 382.909C-0.492503 382.909 -71.1473 448.466 -79.9502 532.593C-80.5605 526.759 -80.876 520.837 -80.876 514.841C-80.8759 422.368 -6.44635 347.405 85.3672 347.404C139.791 347.404 188.106 373.744 218.432 414.457C248.758 373.745 297.072 347.404 351.495 347.404Z" fill="#17CB1D"/>
</g>
<mask id="mask2_535_237" style="mask-type:alpha" maskUnits="userSpaceOnUse" x="218" y="190" width="80" height="46">
<rect x="218.696" y="190.761" width="78.9366" height="44.9902" fill="#FFC42F"/>
</mask>
<g mask="url(#mask2_535_237)">
<mask id="mask3_535_237" style="mask-type:alpha" maskUnits="userSpaceOnUse" x="217" y="190" width="110" height="111">
<ellipse cx="272.237" cy="245.612" rx="54.4602" ry="54.851" fill="#FFC42F"/>
</mask>
<g mask="url(#mask3_535_237)">
<ellipse cx="238.735" cy="173.657" rx="61.6501" ry="62.0926" fill="#FFC42F"/>
</g>
</g>
<mask id="mask4_535_237" style="mask-type:alpha" maskUnits="userSpaceOnUse" x="218" y="235" width="80" height="46">
<rect x="218.696" y="235.75" width="78.9366" height="44.9902" fill="#FFC42F"/>
</mask>
<g mask="url(#mask4_535_237)">
<mask id="mask5_535_237" style="mask-type:alpha" maskUnits="userSpaceOnUse" x="217" y="235" width="110" height="111">
<ellipse cx="272.237" cy="290.601" rx="54.4602" ry="54.851" fill="#FFC42F"/>
</mask>
<g mask="url(#mask5_535_237)">
<ellipse cx="238.735" cy="218.647" rx="61.6501" ry="62.0926" fill="#FFC42F"/>
</g>
</g>
<mask id="mask6_535_237" style="mask-type:alpha" maskUnits="userSpaceOnUse" x="218" y="280" width="80" height="46">
<rect x="218.696" y="280.741" width="78.9366" height="44.9902" fill="#FFC42F"/>
</mask>
<g mask="url(#mask6_535_237)">
<mask id="mask7_535_237" style="mask-type:alpha" maskUnits="userSpaceOnUse" x="217" y="280" width="110" height="111">
<ellipse cx="272.237" cy="335.592" rx="54.4602" ry="54.851" fill="#FFC42F"/>
</mask>
<g mask="url(#mask7_535_237)">
<ellipse cx="238.735" cy="263.638" rx="61.6501" ry="62.0926" fill="#FFC42F"/>
</g>
</g>
<mask id="mask8_535_237" style="mask-type:alpha" maskUnits="userSpaceOnUse" x="139" y="190" width="80" height="46">
<rect width="78.9366" height="44.9902" transform="matrix(-1 0 0 1 218.567 190.761)" fill="#FFC42F"/>
</mask>
<g mask="url(#mask8_535_237)">
<mask id="mask9_535_237" style="mask-type:alpha" maskUnits="userSpaceOnUse" x="110" y="190" width="110" height="111">
<ellipse cx="54.4602" cy="54.851" rx="54.4602" ry="54.851" transform="matrix(-1 0 0 1 219.486 190.761)" fill="#FFC42F"/>
</mask>
<g mask="url(#mask9_535_237)">
<ellipse cx="61.6501" cy="62.0926" rx="61.6501" ry="62.0926" transform="matrix(-1 0 0 1 260.178 111.564)" fill="#FFC42F"/>
</g>
</g>
<mask id="mask10_535_237" style="mask-type:alpha" maskUnits="userSpaceOnUse" x="218" y="145" width="80" height="46">
<rect x="218.696" y="145.505" width="78.9366" height="44.9902" fill="#FFC42F"/>
</mask>
<g mask="url(#mask10_535_237)">
<mask id="mask11_535_237" style="mask-type:alpha" maskUnits="userSpaceOnUse" x="217" y="145" width="110" height="111">
<ellipse cx="272.238" cy="200.356" rx="54.4602" ry="54.851" fill="#FFC42F"/>
</mask>
<g mask="url(#mask11_535_237)">
<ellipse cx="238.735" cy="128.403" rx="61.6501" ry="62.0926" fill="#FFC42F"/>
</g>
</g>
<mask id="mask12_535_237" style="mask-type:alpha" maskUnits="userSpaceOnUse" x="139" y="145" width="80" height="46">
<rect width="78.9366" height="44.9902" transform="matrix(-1 0 0 1 218.566 145.505)" fill="#FFC42F"/>
</mask>
<g mask="url(#mask12_535_237)">
<mask id="mask13_535_237" style="mask-type:alpha" maskUnits="userSpaceOnUse" x="110" y="145" width="110" height="111">
<ellipse cx="54.4602" cy="54.851" rx="54.4602" ry="54.851" transform="matrix(-1 0 0 1 219.485 145.505)" fill="#FFC42F"/>
</mask>
<g mask="url(#mask13_535_237)">
<ellipse cx="61.6501" cy="62.0926" rx="61.6501" ry="62.0926" transform="matrix(-1 0 0 1 260.178 66.3105)" fill="#FFC42F"/>
</g>
</g>
<mask id="mask14_535_237" style="mask-type:alpha" maskUnits="userSpaceOnUse" x="139" y="235" width="80" height="46">
<rect width="78.9366" height="44.9902" transform="matrix(-1 0 0 1 218.567 235.75)" fill="#FFC42F"/>
</mask>
<g mask="url(#mask14_535_237)">
<mask id="mask15_535_237" style="mask-type:alpha" maskUnits="userSpaceOnUse" x="110" y="235" width="110" height="111">
<ellipse cx="54.4602" cy="54.851" rx="54.4602" ry="54.851" transform="matrix(-1 0 0 1 219.486 235.75)" fill="#FFC42F"/>
</mask>
<g mask="url(#mask15_535_237)">
<ellipse cx="61.6501" cy="62.0926" rx="61.6501" ry="62.0926" transform="matrix(-1 0 0 1 260.178 156.555)" fill="#FFC42F"/>
</g>
</g>
<mask id="mask16_535_237" style="mask-type:alpha" maskUnits="userSpaceOnUse" x="139" y="280" width="80" height="46">
<rect width="78.9366" height="44.9902" transform="matrix(-1 0 0 1 218.567 280.741)" fill="#FFC42F"/>
</mask>
<g mask="url(#mask16_535_237)">
<mask id="mask17_535_237" style="mask-type:alpha" maskUnits="userSpaceOnUse" x="110" y="280" width="110" height="111">
<ellipse cx="54.4602" cy="54.851" rx="54.4602" ry="54.851" transform="matrix(-1 0 0 1 219.486 280.741)" fill="#FFC42F"/>
</mask>
<g mask="url(#mask17_535_237)">
<ellipse cx="61.6501" cy="62.0926" rx="61.6501" ry="62.0926" transform="matrix(-1 0 0 1 260.178 201.545)" fill="#FFC42F"/>
</g>
</g>
<mask id="mask18_535_237" style="mask-type:alpha" maskUnits="userSpaceOnUse" x="178" y="68" width="81" height="101">
<path d="M178.384 128.514L218.564 68.2249L258.742 128.514L218.563 168.982L178.384 128.514Z" fill="#FFC42F"/>
</mask>
<g mask="url(#mask18_535_237)">
<ellipse cx="218.272" cy="105.174" rx="32.3364" ry="44.6107" fill="#FFC42F"/>
</g>
<path d="M74.9995 -45.252C138.258 -45.2519 191.948 -4.00536 211.013 53.2412C202.255 54.0231 193.888 56.1768 186.125 59.4863C162.005 40.9487 131.875 29.9385 99.1929 29.9385C19.9775 29.9388 -44.2387 94.6164 -44.2388 174.4C-44.2388 176.163 -44.2062 177.919 -44.144 179.667C-59.482 156.672 -68.4331 128.994 -68.4331 99.21C-68.433 19.426 -4.21594 -45.2518 74.9995 -45.252ZM361.771 -45.252C440.987 -45.252 505.203 19.4259 505.204 99.21C505.204 128.994 496.253 156.672 480.915 179.667C480.977 177.919 481.01 176.163 481.01 174.4C481.01 94.6164 416.793 29.9386 337.578 29.9385C304.91 29.9385 274.793 40.9378 250.679 59.46C242.906 56.1535 234.528 54.0063 225.758 53.2334C244.825 -4.00932 298.515 -45.2518 361.771 -45.252Z" fill="#FFC42F"/>
<path d="M361.772 50.8242C440.988 50.8242 505.205 115.502 505.205 195.286C505.205 225.07 496.254 252.748 480.917 275.743C480.979 273.996 481.012 272.24 481.012 270.478C481.012 190.694 416.795 126.016 337.58 126.016C325.005 126.016 312.809 127.646 301.188 130.707C299.811 110.303 291.162 91.9103 277.829 78.1377C301.428 60.9534 330.425 50.8243 361.772 50.8242ZM75.0024 50.8242C106.374 50.8243 135.392 60.9689 159.001 78.1777C145.685 91.9514 137.049 110.338 135.678 130.731C124.03 127.655 111.803 126.016 99.1958 126.016C19.9802 126.016 -44.2367 190.693 -44.2368 270.478C-44.2368 272.24 -44.2042 273.994 -44.1421 275.741C-59.4794 252.747 -68.4302 225.07 -68.4302 195.286C-68.4301 115.502 -4.21315 50.8242 75.0024 50.8242Z" fill="#FFC42F"/>
<path d="M396.291 212.035C398.894 210.023 402.441 212.483 401.051 215.464C387.526 244.46 357.46 268.912 317.834 284.365C315.728 285.186 313.478 283.616 313.478 281.356V254.858C313.478 253.408 314.44 252.134 315.831 251.723C347.121 242.455 374.584 228.817 396.291 212.035ZM35.9526 213.95C34.6213 210.953 38.1968 208.556 40.7662 210.594C62.3707 227.733 89.9088 241.698 121.391 251.221C122.772 251.639 123.725 252.908 123.725 254.351V281.163C123.725 283.427 121.47 284.996 119.363 284.169C79.2958 268.436 49.0718 243.487 35.9526 213.95Z" fill="#BFBFBF"/>
</g>
<path d="M502.65 200V95H523.8L556.65 162.2L589.5 95H610.5V200H595.65V114.2L556.5 192.5L517.35 114.2V200H502.65ZM628.849 200L672.199 95H690.799L733.699 200H716.599L704.449 169.25H657.499L645.199 200H628.849ZM662.599 156.2H699.349L681.049 110L662.599 156.2ZM797.005 201.65C789.305 201.65 782.105 200.25 775.405 197.45C768.805 194.65 763.005 190.8 758.005 185.9C753.005 180.9 749.105 175.15 746.305 168.65C743.505 162.05 742.105 155 742.105 147.5C742.105 140 743.455 133 746.155 126.5C748.955 119.9 752.855 114.15 757.855 109.25C762.855 104.25 768.655 100.35 775.255 97.55C781.855 94.75 789.005 93.35 796.705 93.35C805.005 93.35 812.855 94.95 820.255 98.15C827.655 101.35 833.905 105.8 839.005 111.5L828.205 122C824.405 117.5 819.705 114.05 814.105 111.65C808.605 109.15 802.805 107.9 796.705 107.9C791.205 107.9 786.105 108.9 781.405 110.9C776.805 112.9 772.755 115.7 769.255 119.3C765.755 122.8 763.005 126.95 761.005 131.75C759.105 136.55 758.155 141.8 758.155 147.5C758.155 153.1 759.105 158.35 761.005 163.25C763.005 168.05 765.755 172.25 769.255 175.85C772.855 179.45 777.005 182.25 781.705 184.25C786.405 186.25 791.505 187.25 797.005 187.25C803.205 187.25 808.805 185.95 813.805 183.35C818.905 180.75 823.055 177.2 826.255 172.7C829.455 168.1 831.405 162.95 832.105 157.25H797.155V143.45H848.605V148.85C848.605 156.35 847.305 163.3 844.705 169.7C842.105 176.1 838.455 181.7 833.755 186.5C829.155 191.3 823.705 195.05 817.405 197.75C811.105 200.35 804.305 201.65 797.005 201.65ZM872.611 200V95H888.361V200H872.611ZM917.318 200V95H964.868C971.868 95 977.968 96.3 983.168 98.9C988.468 101.5 992.568 105.15 995.468 109.85C998.468 114.45 999.968 119.85 999.968 126.05C999.968 132.95 998.018 138.9 994.118 143.9C990.218 148.9 984.968 152.5 978.368 154.7L1001.77 200H984.368L962.618 156.95H933.068V200H917.318ZM933.068 143.75H963.668C969.868 143.75 974.818 142.2 978.518 139.1C982.318 135.9 984.218 131.6 984.218 126.2C984.218 121 982.318 116.8 978.518 113.6C974.818 110.4 969.868 108.8 963.668 108.8H933.068V143.75ZM1023.69 200V95H1101.09V108.8H1039.44V140.3H1079.94V153.65H1039.44V186.2H1101.69V200H1023.69ZM1157.18 201.65C1147.48 201.65 1139.18 199.2 1132.28 194.3C1125.38 189.3 1120.38 182.25 1117.28 173.15L1131.68 167.45C1134.18 174.15 1137.53 179.15 1141.73 182.45C1146.03 185.65 1151.18 187.25 1157.18 187.25C1164.98 187.25 1171.18 184.75 1175.78 179.75C1180.48 174.75 1182.83 168.05 1182.83 159.65V95H1198.58V159.95C1198.58 168.35 1196.88 175.7 1193.48 182C1190.08 188.2 1185.28 193.05 1179.08 196.55C1172.88 199.95 1165.58 201.65 1157.18 201.65ZM1275.56 201.65C1267.96 201.65 1260.86 200.3 1254.26 197.6C1247.66 194.8 1241.81 190.95 1236.71 186.05C1231.71 181.05 1227.81 175.3 1225.01 168.8C1222.31 162.2 1220.96 155.1 1220.96 147.5C1220.96 139.9 1222.31 132.85 1225.01 126.35C1227.81 119.75 1231.71 114 1236.71 109.1C1241.81 104.1 1247.66 100.25 1254.26 97.55C1260.86 94.75 1267.96 93.35 1275.56 93.35C1283.16 93.35 1290.26 94.75 1296.86 97.55C1303.56 100.25 1309.41 104.1 1314.41 109.1C1319.41 114 1323.31 119.75 1326.11 126.35C1328.91 132.85 1330.31 139.9 1330.31 147.5C1330.31 155.1 1328.91 162.2 1326.11 168.8C1323.31 175.3 1319.41 181.05 1314.41 186.05C1309.41 190.95 1303.56 194.8 1296.86 197.6C1290.26 200.3 1283.16 201.65 1275.56 201.65ZM1275.71 187.1C1281.11 187.1 1286.11 186.1 1290.71 184.1C1295.41 182.1 1299.51 179.35 1303.01 175.85C1306.51 172.25 1309.26 168.05 1311.26 163.25C1313.26 158.35 1314.26 153.1 1314.26 147.5C1314.26 141.8 1313.26 136.55 1311.26 131.75C1309.26 126.95 1306.51 122.8 1303.01 119.3C1299.51 115.7 1295.41 112.9 1290.71 110.9C1286.11 108.9 1281.11 107.9 1275.71 107.9C1270.21 107.9 1265.11 108.9 1260.41 110.9C1255.71 112.9 1251.61 115.7 1248.11 119.3C1244.61 122.8 1241.86 126.95 1239.86 131.75C1237.96 136.55 1237.01 141.75 1237.01 147.35C1237.01 153.05 1237.96 158.35 1239.86 163.25C1241.86 168.05 1244.61 172.25 1248.11 175.85C1251.61 179.35 1255.71 182.1 1260.41 184.1C1265.11 186.1 1270.21 187.1 1275.71 187.1ZM538.2 348.5C529.8 348.5 521.7 346.85 513.9 343.55C506.1 340.25 499.2 335.6 493.2 329.6L502.8 318.5C508.5 324.1 514.3 328.25 520.2 330.95C526.2 333.65 532.45 335 538.95 335C544.05 335 548.5 334.3 552.3 332.9C556.2 331.4 559.2 329.3 561.3 326.6C563.4 323.9 564.45 320.85 564.45 317.45C564.45 312.75 562.8 309.15 559.5 306.65C556.2 304.15 550.75 302.25 543.15 300.95L525.6 298.1C516 296.4 508.8 293.3 504 288.8C499.3 284.3 496.95 278.3 496.95 270.8C496.95 264.8 498.55 259.55 501.75 255.05C504.95 250.45 509.45 246.9 515.25 244.4C521.15 241.9 527.95 240.65 535.65 240.65C543.25 240.65 550.7 241.9 558 244.4C565.4 246.8 572.05 250.3 577.95 254.9L569.25 266.9C557.95 258.3 546.5 254 534.9 254C530.3 254 526.3 254.65 522.9 255.95C519.5 257.25 516.85 259.1 514.95 261.5C513.05 263.8 512.1 266.5 512.1 269.6C512.1 273.9 513.55 277.2 516.45 279.5C519.35 281.7 524.15 283.3 530.85 284.3L547.8 287.15C558.9 288.95 567.05 292.2 572.25 296.9C577.45 301.6 580.05 308.05 580.05 316.25C580.05 322.65 578.3 328.3 574.8 333.2C571.3 338 566.4 341.75 560.1 344.45C553.8 347.15 546.5 348.5 538.2 348.5ZM602.142 347V242H679.542V255.8H617.892V287.3H658.392V300.65H617.892V333.2H680.142V347H602.142ZM703.832 347V242H724.982L757.832 309.2L790.682 242H811.682V347H796.832V261.2L757.682 339.5L718.532 261.2V347H703.832ZM840.531 347V242H885.981C892.881 242 898.881 243.15 903.981 245.45C909.081 247.75 913.031 251 915.831 255.2C918.631 259.3 920.031 264.15 920.031 269.75C920.031 274.85 918.731 279.35 916.131 283.25C913.531 287.15 909.881 290.25 905.181 292.55C911.081 294.65 915.681 297.85 918.981 302.15C922.381 306.35 924.081 311.3 924.081 317C924.081 323.1 922.581 328.4 919.581 332.9C916.681 337.4 912.481 340.9 906.981 343.4C901.581 345.8 895.231 347 887.931 347H840.531ZM856.281 286.55H885.081C890.981 286.55 895.681 285.15 899.181 282.35C902.681 279.55 904.431 275.75 904.431 270.95C904.431 266.15 902.681 262.35 899.181 259.55C895.681 256.75 890.981 255.35 885.081 255.35H856.281V286.55ZM856.281 333.65H886.731C893.331 333.65 898.531 332.1 902.331 329C906.231 325.9 908.181 321.7 908.181 316.4C908.181 311.2 906.231 307.05 902.331 303.95C898.531 300.75 893.331 299.15 886.731 299.15H856.281V333.65ZM997.301 348.65C989.701 348.65 982.601 347.3 976.001 344.6C969.401 341.8 963.551 337.95 958.451 333.05C953.451 328.05 949.551 322.3 946.751 315.8C944.051 309.2 942.701 302.1 942.701 294.5C942.701 286.9 944.051 279.85 946.751 273.35C949.551 266.75 953.451 261 958.451 256.1C963.551 251.1 969.401 247.25 976.001 244.55C982.601 241.75 989.701 240.35 997.301 240.35C1004.9 240.35 1012 241.75 1018.6 244.55C1025.3 247.25 1031.15 251.1 1036.15 256.1C1041.15 261 1045.05 266.75 1047.85 273.35C1050.65 279.85 1052.05 286.9 1052.05 294.5C1052.05 302.1 1050.65 309.2 1047.85 315.8C1045.05 322.3 1041.15 328.05 1036.15 333.05C1031.15 337.95 1025.3 341.8 1018.6 344.6C1012 347.3 1004.9 348.65 997.301 348.65ZM997.451 334.1C1002.85 334.1 1007.85 333.1 1012.45 331.1C1017.15 329.1 1021.25 326.35 1024.75 322.85C1028.25 319.25 1031 315.05 1033 310.25C1035 305.35 1036 300.1 1036 294.5C1036 288.8 1035 283.55 1033 278.75C1031 273.95 1028.25 269.8 1024.75 266.3C1021.25 262.7 1017.15 259.9 1012.45 257.9C1007.85 255.9 1002.85 254.9 997.451 254.9C991.951 254.9 986.851 255.9 982.151 257.9C977.451 259.9 973.351 262.7 969.851 266.3C966.351 269.8 963.601 273.95 961.601 278.75C959.701 283.55 958.751 288.75 958.751 294.35C958.751 300.05 959.701 305.35 961.601 310.25C963.601 315.05 966.351 319.25 969.851 322.85C973.351 326.35 977.451 329.1 982.151 331.1C986.851 333.1 991.951 334.1 997.451 334.1ZM1091.89 332.9H1113.49C1118.99 332.9 1124.09 331.95 1128.79 330.05C1133.49 328.05 1137.59 325.35 1141.09 321.95C1144.69 318.45 1147.44 314.4 1149.34 309.8C1151.34 305.1 1152.34 300 1152.34 294.5C1152.34 289.1 1151.34 284.05 1149.34 279.35C1147.44 274.65 1144.69 270.6 1141.09 267.2C1137.59 263.7 1133.49 261 1128.79 259.1C1124.09 257.1 1118.99 256.1 1113.49 256.1H1091.89V332.9ZM1076.14 347V242H1113.19C1121.09 242 1128.39 243.35 1135.09 246.05C1141.79 248.65 1147.64 252.3 1152.64 257C1157.64 261.7 1161.54 267.25 1164.34 273.65C1167.14 280.05 1168.54 287 1168.54 294.5C1168.54 302.1 1167.14 309.1 1164.34 315.5C1161.64 321.8 1157.79 327.3 1152.79 332C1147.79 336.7 1141.89 340.4 1135.09 343.1C1128.39 345.7 1121.09 347 1113.19 347H1076.14ZM1242.72 348.65C1235.12 348.65 1228.02 347.3 1221.42 344.6C1214.82 341.8 1208.97 337.95 1203.87 333.05C1198.87 328.05 1194.97 322.3 1192.17 315.8C1189.47 309.2 1188.12 302.1 1188.12 294.5C1188.12 286.9 1189.47 279.85 1192.17 273.35C1194.97 266.75 1198.87 261 1203.87 256.1C1208.97 251.1 1214.82 247.25 1221.42 244.55C1228.02 241.75 1235.12 240.35 1242.72 240.35C1250.32 240.35 1257.42 241.75 1264.02 244.55C1270.72 247.25 1276.57 251.1 1281.57 256.1C1286.57 261 1290.47 266.75 1293.27 273.35C1296.07 279.85 1297.47 286.9 1297.47 294.5C1297.47 302.1 1296.07 309.2 1293.27 315.8C1290.47 322.3 1286.57 328.05 1281.57 333.05C1276.57 337.95 1270.72 341.8 1264.02 344.6C1257.42 347.3 1250.32 348.65 1242.72 348.65ZM1242.87 334.1C1248.27 334.1 1253.27 333.1 1257.87 331.1C1262.57 329.1 1266.67 326.35 1270.17 322.85C1273.67 319.25 1276.42 315.05 1278.42 310.25C1280.42 305.35 1281.42 300.1 1281.42 294.5C1281.42 288.8 1280.42 283.55 1278.42 278.75C1276.42 273.95 1273.67 269.8 1270.17 266.3C1266.67 262.7 1262.57 259.9 1257.87 257.9C1253.27 255.9 1248.27 254.9 1242.87 254.9C1237.37 254.9 1232.27 255.9 1227.57 257.9C1222.87 259.9 1218.77 262.7 1215.27 266.3C1211.77 269.8 1209.02 273.95 1207.02 278.75C1205.12 283.55 1204.17 288.75 1204.17 294.35C1204.17 300.05 1205.12 305.35 1207.02 310.25C1209.02 315.05 1211.77 319.25 1215.27 322.85C1218.77 326.35 1222.87 329.1 1227.57 331.1C1232.27 333.1 1237.37 334.1 1242.87 334.1Z" fill="black"/>
</svg>
